<svg width="24" height="24" viewBox="0 0 18 24" fill="none" xmlns="http://www.w3.org/2000/svg">
<path d="M8.99908 1C8.04718 1 7.26894 1.85347 7.26894 2.89378C7.26894 3.37657 7.44135 3.81364 7.71612 4.14859C4.94372 4.79178 2.86822 7.4751 2.86822 10.6992V16.0131H2.65368C1.74374 16.0131 1 16.825 1 17.8195C1 18.8139 1.7441 19.6268 2.65368 19.6268H5.84105V19.777C5.84105 21.555 7.16035 23 8.78728 23C10.4142 23 11.7356 21.5552 11.7356 19.777V19.6268H15.3442C16.2538 19.6268 17 18.8141 17 17.8195C17 16.825 16.2543 16.0131 15.3442 16.0131H15.1319V10.6992C15.1319 7.47551 13.0557 4.79231 10.2832 4.14814C10.5586 3.81316 10.7319 3.37608 10.7319 2.89333C10.7319 1.85302 9.95098 1 8.99908 1ZM8.99908 1.78448C9.56307 1.78448 10.0134 2.2774 10.0134 2.89378C10.0134 3.51016 9.56307 3.99923 8.99908 3.99923C8.43508 3.99923 7.98676 3.51016 7.98676 2.89378C7.98676 2.2774 8.43508 1.78448 8.99908 1.78448ZM8.99908 4.78442C12.0043 4.78442 14.4143 7.41508 14.4143 10.6994V16.4068C14.4151 16.6222 14.5746 16.7968 14.7719 16.7975H15.3445C15.8689 16.7975 16.2825 17.2463 16.2825 17.8194C16.2825 18.3926 15.8694 18.8414 15.3445 18.8414L2.65402 18.8415C2.12927 18.8415 1.71893 18.3927 1.71893 17.8196C1.71893 17.2465 2.1296 16.7977 2.65402 16.7977H3.22601C3.42421 16.7986 3.58556 16.6234 3.58636 16.4068V10.6994C3.58636 7.41508 5.99366 4.78442 8.99908 4.78442ZM6.55626 19.629H11.0182V19.7768C11.0182 21.1339 10.0294 22.2145 8.78767 22.2145C7.54594 22.2145 6.55638 21.1339 6.55638 19.7768L6.55626 19.629Z" fill="#6868AB" stroke="#707C97"/>
</svg>
