<svg width="24" height="17" viewBox="0 0 24 17" fill="none" xmlns="http://www.w3.org/2000/svg">
<path d="M17 17H0C0.472222 14.2847 2.83333 8.85417 8.5 8.85417C14.1667 8.85417 16.5278 14.2847 17 17Z" fill="#6868AB"/>
<path d="M12.0417 3.54167C12.0417 5.49767 10.456 7.08333 8.5 7.08333C6.54399 7.08333 4.95833 5.49767 4.95833 3.54167C4.95833 1.58566 6.54399 0 8.5 0C10.456 0 12.0417 1.58566 12.0417 3.54167Z" fill="#6868AB"/>
<path d="M23.1202 17.0001H10.2002C10.5591 14.9365 12.3535 10.8092 16.6602 10.8092C20.9669 10.8092 22.7613 14.9365 23.1202 17.0001Z" fill="#6868AB"/>
<path d="M19.3519 6.77174C19.3519 8.25831 18.1468 9.46341 16.6602 9.46341C15.1736 9.46341 13.9685 8.25831 13.9685 6.77174C13.9685 5.28518 15.1736 4.08008 16.6602 4.08008C18.1468 4.08008 19.3519 5.28518 19.3519 6.77174Z" fill="#6868AB"/>
</svg>
