<svg width="970" height="899" viewBox="0 0 970 899" fill="none" xmlns="http://www.w3.org/2000/svg">
<path d="M485.067 0.775431C217.239 0.66713 0.3125 217.485 0.3125 485.097C0.3125 696.716 136.013 876.604 324.998 942.667C350.449 949.057 346.55 930.971 346.55 918.625V834.691C199.586 851.911 193.629 754.657 183.774 738.412C163.847 704.406 116.736 695.742 130.815 679.496C164.28 662.277 198.395 683.828 237.924 742.203C266.516 784.548 322.291 777.4 350.557 770.361C356.73 744.91 369.943 722.167 388.138 704.514C235.867 677.222 172.402 584.3 172.402 473.833C172.402 420.224 190.055 370.948 224.712 331.201C202.618 265.679 226.769 209.579 230.018 201.24C292.941 195.609 358.355 246.293 363.445 250.3C399.184 240.662 440.014 235.572 485.717 235.572C531.636 235.572 572.574 240.878 608.638 250.625C620.876 241.311 681.524 197.775 740.007 203.081C743.148 211.42 766.757 266.221 745.963 330.876C781.053 370.731 798.922 420.441 798.922 474.158C798.922 584.842 735.025 677.872 582.321 704.73C595.4 717.593 605.786 732.933 612.87 749.855C619.955 766.776 623.597 784.94 623.583 803.284V925.123C624.45 934.87 623.583 944.508 639.829 944.508C831.629 879.853 969.713 698.666 969.713 485.205C969.713 217.485 752.678 0.775431 485.067 0.775431Z" fill="#6868AB"/>
</svg>
