<svg width="29" height="29" viewBox="0 0 24 27" fill="none" xmlns="http://www.w3.org/2000/svg">
<g id="Icon/Outline/more-vertical">
<path id="Mask" fill-rule="evenodd" clip-rule="evenodd" d="M12 7.76299C13.104 7.76299 14 6.79955 14 5.61245C14 4.42536 13.104 3.46191 12 3.46191C10.896 3.46191 10 4.42536 10 5.61245C10 6.79955 10.896 7.76299 12 7.76299ZM12 10.9888C10.896 10.9888 10 11.9522 10 13.1393C10 14.3264 10.896 15.2899 12 15.2899C13.104 15.2899 14 14.3264 14 13.1393C14 11.9522 13.104 10.9888 12 10.9888ZM10 20.6662C10 19.4791 10.896 18.5157 12 18.5157C13.104 18.5157 14 19.4791 14 20.6662C14 21.8533 13.104 22.8168 12 22.8168C10.896 22.8168 10 21.8533 10 20.6662Z" fill="#231F20"/>
<mask id="mask0_880_1913" style="mask-type:alpha" maskUnits="userSpaceOnUse" x="10" y="3" width="4" height="20">
<path id="Mask_2" fill-rule="evenodd" clip-rule="evenodd" d="M12 7.76299C13.104 7.76299 14 6.79955 14 5.61245C14 4.42536 13.104 3.46191 12 3.46191C10.896 3.46191 10 4.42536 10 5.61245C10 6.79955 10.896 7.76299 12 7.76299ZM12 10.9888C10.896 10.9888 10 11.9522 10 13.1393C10 14.3264 10.896 15.2899 12 15.2899C13.104 15.2899 14 14.3264 14 13.1393C14 11.9522 13.104 10.9888 12 10.9888ZM10 20.6662C10 19.4791 10.896 18.5157 12 18.5157C13.104 18.5157 14 19.4791 14 20.6662C14 21.8533 13.104 22.8168 12 22.8168C10.896 22.8168 10 21.8533 10 20.6662Z" fill="white"/>
</mask>
<g mask="url(#mask0_880_1913)">
<g id="&#240;&#159;&#142;&#168; Color">
<rect id="Base" y="0.236328" width="24" height="25.8065" fill="#707C97"/>
</g>
</g>
</g>
</svg>
