<svg width="104" height="109" viewBox="0 0 104 109" fill="none" xmlns="http://www.w3.org/2000/svg">
<g filter="url(#filter0_ddd_514_1593)">
<ellipse cx="52.0953" cy="48.5" rx="26.0963" ry="28.0605" fill="white"/>
</g>
<path fill-rule="evenodd" clip-rule="evenodd" d="M52.0954 43.1031C53.2035 43.1031 54.1028 42.1361 54.1028 40.9446C54.1028 39.7531 53.2035 38.7861 52.0954 38.7861C50.9873 38.7861 50.088 39.7531 50.088 40.9446C50.088 42.1361 50.9873 43.1031 52.0954 43.1031ZM52.0953 46.3416C50.9872 46.3416 50.0879 47.3086 50.0879 48.5001C50.0879 49.6916 50.9872 50.6586 52.0953 50.6586C53.2034 50.6586 54.1027 49.6916 54.1027 48.5001C54.1027 47.3086 53.2034 46.3416 52.0953 46.3416ZM50.0879 56.0543C50.0879 54.8628 50.9872 53.8958 52.0953 53.8958C53.2034 53.8958 54.1027 54.8628 54.1027 56.0543C54.1027 57.2458 53.2034 58.2128 52.0953 58.2128C50.9872 58.2128 50.0879 57.2458 50.0879 56.0543Z" fill="#231F20"/>
<mask id="mask0_514_1593" style="mask-type:alpha" maskUnits="userSpaceOnUse" x="50" y="38" width="5" height="21">
<path fill-rule="evenodd" clip-rule="evenodd" d="M52.0954 43.1031C53.2035 43.1031 54.1028 42.1361 54.1028 40.9446C54.1028 39.7531 53.2035 38.7861 52.0954 38.7861C50.9873 38.7861 50.088 39.7531 50.088 40.9446C50.088 42.1361 50.9873 43.1031 52.0954 43.1031ZM52.0953 46.3416C50.9872 46.3416 50.0879 47.3086 50.0879 48.5001C50.0879 49.6916 50.9872 50.6586 52.0953 50.6586C53.2034 50.6586 54.1027 49.6916 54.1027 48.5001C54.1027 47.3086 53.2034 46.3416 52.0953 46.3416ZM50.0879 56.0543C50.0879 54.8628 50.9872 53.8958 52.0953 53.8958C53.2034 53.8958 54.1027 54.8628 54.1027 56.0543C54.1027 57.2458 53.2034 58.2128 52.0953 58.2128C50.9872 58.2128 50.0879 57.2458 50.0879 56.0543Z" fill="white"/>
</mask>
<g mask="url(#mask0_514_1593)">
<rect x="40.0508" y="35.5488" width="24.0889" height="25.902" fill="#707C97"/>
</g>
<defs>
<filter id="filter0_ddd_514_1593" x="0.906431" y="0.365379" width="102.378" height="108.314" filterUnits="userSpaceOnUse" color-interpolation-filters="sRGB">
<feFlood flood-opacity="0" result="BackgroundImageFix"/>
<feColorMatrix in="SourceAlpha" type="matrix" values="0 0 0 0 0 0 0 0 0 0 0 0 0 0 0 0 0 0 127 0" result="hardAlpha"/>
<feOffset dy="5.01852"/>
<feGaussianBlur stdDeviation="12.5463"/>
<feColorMatrix type="matrix" values="0 0 0 0 0.164706 0 0 0 0 0.545098 0 0 0 0 0.94902 0 0 0 0.07 0"/>
<feBlend mode="normal" in2="BackgroundImageFix" result="effect1_dropShadow_514_1593"/>
<feColorMatrix in="SourceAlpha" type="matrix" values="0 0 0 0 0 0 0 0 0 0 0 0 0 0 0 0 0 0 127 0" result="hardAlpha"/>
<feOffset dy="7.02593"/>
<feGaussianBlur stdDeviation="12.5463"/>
<feColorMatrix type="matrix" values="0 0 0 0 0.164706 0 0 0 0 0.545098 0 0 0 0 0.94902 0 0 0 0.03 0"/>
<feBlend mode="normal" in2="effect1_dropShadow_514_1593" result="effect2_dropShadow_514_1593"/>
<feColorMatrix in="SourceAlpha" type="matrix" values="0 0 0 0 0 0 0 0 0 0 0 0 0 0 0 0 0 0 127 0" result="hardAlpha"/>
<feOffset dy="10.037"/>
<feGaussianBlur stdDeviation="7.52778"/>
<feColorMatrix type="matrix" values="0 0 0 0 0 0 0 0 0 0 0 0 0 0 0 0 0 0 0.03 0"/>
<feBlend mode="normal" in2="effect2_dropShadow_514_1593" result="effect3_dropShadow_514_1593"/>
<feBlend mode="normal" in="SourceGraphic" in2="effect3_dropShadow_514_1593" result="shape"/>
</filter>
</defs>
</svg>
