<svg width="24" height="26" viewBox="0 0 24 26" fill="none" xmlns="http://www.w3.org/2000/svg">
<g id="Icon/Outline/search">
<path id="Mask" fill-rule="evenodd" clip-rule="evenodd" d="M5 12.0816C5 8.57 7.691 5.71425 11 5.71425C14.309 5.71425 17 8.57 17 12.0816C17 15.5932 14.309 18.4489 11 18.4489C7.691 18.4489 5 15.5932 5 12.0816ZM20.707 20.8823L17.312 17.2784C18.365 15.8415 19 14.0406 19 12.0816C19 7.40053 15.411 3.5918 11 3.5918C6.589 3.5918 3 7.40053 3 12.0816C3 16.7627 6.589 20.5714 11 20.5714C12.846 20.5714 14.543 19.8975 15.897 18.78L19.293 22.3829C19.488 22.5898 19.744 22.6938 20 22.6938C20.256 22.6938 20.512 22.5898 20.707 22.3829C21.098 21.968 21.098 21.2973 20.707 20.8823Z" fill="#231F20"/>
<mask id="mask0_514_1567" style="mask-type:alpha" maskUnits="userSpaceOnUse" x="3" y="3" width="18" height="20">
<path id="Mask_2" fill-rule="evenodd" clip-rule="evenodd" d="M5 12.0816C5 8.57 7.691 5.71425 11 5.71425C14.309 5.71425 17 8.57 17 12.0816C17 15.5932 14.309 18.4489 11 18.4489C7.691 18.4489 5 15.5932 5 12.0816ZM20.707 20.8823L17.312 17.2784C18.365 15.8415 19 14.0406 19 12.0816C19 7.40053 15.411 3.5918 11 3.5918C6.589 3.5918 3 7.40053 3 12.0816C3 16.7627 6.589 20.5714 11 20.5714C12.846 20.5714 14.543 19.8975 15.897 18.78L19.293 22.3829C19.488 22.5898 19.744 22.6938 20 22.6938C20.256 22.6938 20.512 22.5898 20.707 22.3829C21.098 21.968 21.098 21.2973 20.707 20.8823Z" fill="white"/>
</mask>
<g mask="url(#mask0_514_1567)">
<g id="&#240;&#159;&#142;&#168; Color" filter="url(#filter0_d_514_1567)">
<rect id="Base" y="0.408203" width="24" height="25.4694" fill="#707C97"/>
</g>
</g>
</g>
<defs>
<filter id="filter0_d_514_1567" x="-4" y="0.408203" width="32" height="33.4697" filterUnits="userSpaceOnUse" color-interpolation-filters="sRGB">
<feFlood flood-opacity="0" result="BackgroundImageFix"/>
<feColorMatrix in="SourceAlpha" type="matrix" values="0 0 0 0 0 0 0 0 0 0 0 0 0 0 0 0 0 0 127 0" result="hardAlpha"/>
<feOffset dy="4"/>
<feGaussianBlur stdDeviation="2"/>
<feComposite in2="hardAlpha" operator="out"/>
<feColorMatrix type="matrix" values="0 0 0 0 0 0 0 0 0 0 0 0 0 0 0 0 0 0 0.25 0"/>
<feBlend mode="normal" in2="BackgroundImageFix" result="effect1_dropShadow_514_1567"/>
<feBlend mode="normal" in="SourceGraphic" in2="effect1_dropShadow_514_1567" result="shape"/>
</filter>
</defs>
</svg>
