<svg width="28" height="28" viewBox="0 0 20 22" fill="none" xmlns="http://www.w3.org/2000/svg">
<g filter="url(#filter0_dd_514_1600)">
<path fill-rule="evenodd" clip-rule="evenodd" d="M12.3893 19.7136C12.3718 19.7136 12.3552 19.7127 12.3385 19.7118C11.9618 19.6876 11.6477 19.3937 11.5727 18.9959L10.291 12.2154C10.2243 11.8623 9.96849 11.5872 9.64016 11.5156L3.33433 10.1365C2.96433 10.0568 2.69099 9.71897 2.66849 9.31395C2.64599 8.90804 2.87849 8.53707 3.23683 8.40983L16.5702 3.63116C16.8693 3.52184 17.1993 3.60607 17.4227 3.84711C17.646 4.08725 17.7235 4.44209 17.6243 4.76377L13.1793 19.1007C13.066 19.469 12.746 19.7136 12.3893 19.7136" fill="#231F20"/>
<mask id="mask0_514_1600" style="mask-type:alpha" maskUnits="userSpaceOnUse" x="2" y="3" width="16" height="17">
<path fill-rule="evenodd" clip-rule="evenodd" d="M12.3893 19.7136C12.3718 19.7136 12.3552 19.7127 12.3385 19.7118C11.9618 19.6876 11.6477 19.3937 11.5727 18.9959L10.291 12.2154C10.2243 11.8623 9.96849 11.5872 9.64016 11.5156L3.33433 10.1365C2.96433 10.0568 2.69099 9.71897 2.66849 9.31395C2.64599 8.90804 2.87849 8.53707 3.23683 8.40983L16.5702 3.63116C16.8693 3.52184 17.1993 3.60607 17.4227 3.84711C17.646 4.08725 17.7235 4.44209 17.6243 4.76377L13.1793 19.1007C13.066 19.469 12.746 19.7136 12.3893 19.7136" fill="white"/>
</mask>
<g mask="url(#mask0_514_1600)">
<rect x="1" width="20" height="21.5054" fill="white"/>
</g>
</g>
<defs>
<filter id="filter0_dd_514_1600" x="-1" y="-1" width="24" height="25.5059" filterUnits="userSpaceOnUse" color-interpolation-filters="sRGB">
<feFlood flood-opacity="0" result="BackgroundImageFix"/>
<feColorMatrix in="SourceAlpha" type="matrix" values="0 0 0 0 0 0 0 0 0 0 0 0 0 0 0 0 0 0 127 0" result="hardAlpha"/>
<feOffset dy="1"/>
<feGaussianBlur stdDeviation="0.5"/>
<feColorMatrix type="matrix" values="0 0 0 0 0 0 0 0 0 0 0 0 0 0 0 0 0 0 0.03 0"/>
<feBlend mode="normal" in2="BackgroundImageFix" result="effect1_dropShadow_514_1600"/>
<feColorMatrix in="SourceAlpha" type="matrix" values="0 0 0 0 0 0 0 0 0 0 0 0 0 0 0 0 0 0 127 0" result="hardAlpha"/>
<feOffset dy="1"/>
<feGaussianBlur stdDeviation="1"/>
<feColorMatrix type="matrix" values="0 0 0 0 0 0 0 0 0 0 0 0 0 0 0 0 0 0 0.03 0"/>
<feBlend mode="normal" in2="effect1_dropShadow_514_1600" result="effect2_dropShadow_514_1600"/>
<feBlend mode="normal" in="SourceGraphic" in2="effect2_dropShadow_514_1600" result="shape"/>
</filter>
</defs>
</svg>
